<?xml version="1.0" standalone="no"?><!DOCTYPE svg PUBLIC "-//W3C//DTD SVG 1.1//EN" "http://www.w3.org/Graphics/SVG/1.1/DTD/svg11.dtd"><svg t="1652591657096" class="icon" viewBox="0 0 1024 1024" version="1.1" xmlns="http://www.w3.org/2000/svg" p-id="2506" xmlns:xlink="http://www.w3.org/1999/xlink" width="200" height="200"><defs><style type="text/css">@font-face { font-family: feedback-iconfont; src: url("//at.alicdn.com/t/font_1031158_u69w8yhxdu.woff2?t=1630033759944") format("woff2"), url("//at.alicdn.com/t/font_1031158_u69w8yhxdu.woff?t=1630033759944") format("woff"), url("//at.alicdn.com/t/font_1031158_u69w8yhxdu.ttf?t=1630033759944") format("truetype"); }
</style></defs><path d="M512 512m-460.8 0a460.8 460.8 0 1 0 921.6 0 460.8 460.8 0 1 0-921.6 0Z" fill="#059490" p-id="2507"></path><path d="M732.6208 505.18528V819.2H298.16832V505.18528H209.92L512 204.8l302.08 300.38528h-81.4592zM293.15072 471.04h38.95808v314.01472h366.592V471.04h32.17408L512 254.29504z m300.30848 215.04h81.4592v81.92h-81.4592v-81.92z m-118.784 0h81.4592v81.92H474.66496v-81.92z m0-116.05504h81.4592v81.92H474.66496v-81.92zM355.87072 686.08h81.4592v81.92h-81.4592v-81.92z m0-116.05504h81.4592v81.92h-81.4592v-81.92z m0-116.04992h81.4592v81.92h-81.4592v-81.92z" fill="#ffffff" p-id="2508"></path></svg>